<svg version="1.1" id="Layer_1" xmlns="http://www.w3.org/2000/svg" xmlns:xlink="http://www.w3.org/1999/xlink" x="0px" y="0px"
	 width="100%" viewBox="0 0 800 600" enable-background="new 0 0 800 600" xml:space="preserve">
<path fill="#FFFFFF" opacity="1.000000" stroke="none" 
	d="
M472.000000,601.000000 
	C314.666656,601.000000 157.833328,601.000000 1.000000,601.000000 
	C1.000000,401.000000 1.000000,201.000000 1.000000,1.000000 
	C267.666656,1.000000 534.333313,1.000000 801.000000,1.000000 
	C801.000000,201.000000 801.000000,401.000000 801.000000,601.000000 
	C691.500000,601.000000 582.000000,601.000000 472.000000,601.000000 
M725.853516,293.503906 
	C725.596497,288.186340 725.368530,282.867218 725.077576,277.551514 
	C723.520508,249.108093 714.929993,223.011490 698.329529,199.811829 
	C667.133423,156.214340 625.438782,125.862244 576.642700,104.840790 
	C520.701965,80.741417 462.017151,70.297585 401.259705,69.206337 
	C370.310425,68.650459 339.748718,70.572983 309.311554,75.961082 
	C261.296631,84.460854 215.253006,98.603966 172.794357,123.100388 
	C144.121567,139.643097 118.678688,160.169418 97.758003,185.927139 
	C72.411819,217.133575 58.201954,252.352264 60.877151,293.222382 
	C61.874580,308.460571 61.604744,324.061890 64.934410,338.815674 
	C75.723930,386.624237 103.277504,423.968658 141.602219,453.495056 
	C198.783005,497.548645 265.166107,517.796448 335.816376,524.585876 
	C365.853363,527.472534 396.335785,526.317505 426.606201,526.020386 
	C459.191071,525.700623 491.250000,520.711426 522.664307,511.935669 
	C571.730347,498.228851 617.646729,478.450653 656.116089,443.824249 
	C700.535095,403.842621 726.255493,355.314606 725.853516,293.503906 
z"/>
<path fill="#04AFEF" opacity="1.000000" stroke="none" 
	d="
M725.853516,293.998474 
	C726.255493,355.314606 700.535095,403.842621 656.116089,443.824249 
	C617.646729,478.450653 571.730347,498.228851 522.664307,511.935669 
	C491.250000,520.711426 459.191071,525.700623 426.606201,526.020386 
	C396.335785,526.317505 365.853363,527.472534 335.816376,524.585876 
	C265.166107,517.796448 198.783005,497.548645 141.602219,453.495056 
	C103.277504,423.968658 75.723930,386.624237 64.934410,338.815674 
	C61.604744,324.061890 61.874580,308.460571 60.877151,293.222382 
	C58.201954,252.352264 72.411819,217.133575 97.758003,185.927139 
	C118.678688,160.169418 144.121567,139.643097 172.794357,123.100388 
	C215.253006,98.603966 261.296631,84.460854 309.311554,75.961082 
	C339.748718,70.572983 370.310425,68.650459 401.259705,69.206337 
	C462.017151,70.297585 520.701965,80.741417 576.642700,104.840790 
	C625.438782,125.862244 667.133423,156.214340 698.329529,199.811829 
	C714.929993,223.011490 723.520508,249.108093 725.077576,277.551514 
	C725.368530,282.867218 725.596497,288.186340 725.853516,293.998474 
M307.792206,179.557159 
	C306.169647,179.919067 304.493164,180.125198 302.932526,180.665848 
	C270.316376,191.964783 238.033630,188.809692 205.915527,178.474854 
	C187.089005,172.416885 168.240097,166.424576 149.479950,160.166824 
	C144.882095,158.633148 141.147186,158.839218 137.715027,162.439682 
	C126.126785,174.596222 113.398064,185.857956 103.149162,199.049652 
	C90.663483,215.120361 82.323753,233.784012 76.681587,253.494415 
	C75.744591,256.767761 76.437721,258.449005 79.914322,259.227478 
	C84.612183,260.279449 89.197090,261.824554 93.870415,262.999084 
	C136.031479,273.595367 177.880356,285.085205 216.317352,306.200073 
	C219.104141,307.730988 220.801056,306.768219 222.977783,305.249054 
	C234.420700,297.262878 251.605927,298.113434 261.867157,307.330658 
	C264.911926,310.065582 267.470764,310.502319 271.207977,308.658936 
	C286.439972,301.145630 303.898407,304.453918 315.431152,317.021362 
	C318.635681,320.513367 322.257111,322.119476 326.857544,322.005768 
	C329.522156,321.939911 332.217346,322.244568 334.851562,321.954315 
	C351.700378,320.097717 366.276825,338.053833 366.851318,351.474152 
	C367.188477,359.349518 367.437347,359.338837 375.358856,360.769714 
	C394.868164,364.293610 408.331543,382.884766 405.444611,402.314056 
	C403.432068,415.858673 403.432312,415.857849 417.128937,419.224091 
	C417.613251,419.343109 418.076141,419.560181 418.563965,419.652557 
	C426.172699,421.093689 433.716827,421.826416 441.021393,418.191956 
	C444.690308,416.366425 445.657928,414.202667 442.601013,410.936829 
	C440.326019,408.506470 438.171173,405.960297 436.025665,403.412750 
	C430.126282,396.407806 424.190918,389.430450 418.456512,382.292297 
	C417.613708,381.243164 417.786835,379.377930 417.489899,377.890289 
	C419.038422,377.946381 420.888336,377.478302 422.076355,378.161377 
	C425.085205,379.891418 427.973022,381.935791 430.594666,384.216034 
	C438.383087,390.990204 445.868927,398.117676 453.757294,404.769989 
	C462.073730,411.783295 472.796906,411.318268 480.935242,404.059509 
	C486.677032,398.938293 487.253296,393.469147 482.595551,387.404266 
	C480.567230,384.763184 478.409912,382.219971 476.278931,379.659119 
	C468.508087,370.320435 460.615234,361.079437 453.045197,351.581024 
	C451.697784,349.890381 451.669159,347.148712 451.031586,344.892365 
	C453.177429,345.623749 455.538483,346.007812 457.416290,347.171631 
	C459.941650,348.736725 462.157776,350.831970 464.395691,352.824310 
	C473.848724,361.240234 483.094971,369.897125 492.730927,378.096771 
	C503.953003,387.646118 514.402588,386.995636 524.997986,376.632782 
	C532.143982,369.643616 532.727051,361.988739 526.095337,354.643036 
	C518.845154,346.612335 511.117737,339.014740 503.732086,331.103516 
	C496.349213,323.195251 489.084625,315.174347 481.910217,307.076965 
	C481.141602,306.209473 481.321228,304.501801 481.061005,303.183899 
	C482.417419,303.056824 484.112244,302.348572 485.069885,302.906250 
	C488.645813,304.988647 492.231201,307.193146 495.361450,309.878296 
	C508.634796,321.264252 521.804138,332.773560 534.890076,344.374817 
	C540.750916,349.570709 547.083923,352.065552 555.025574,350.220154 
	C562.213013,348.550018 568.597351,345.844788 570.846741,338.222595 
	C573.188538,330.287109 570.649719,323.641357 564.316406,318.179596 
	C532.790283,290.991638 501.519745,263.504395 469.800018,236.545074 
	C456.751038,225.454453 443.207092,214.838013 429.138031,205.088562 
	C416.960022,196.649597 403.442139,195.669418 389.997559,203.124329 
	C385.634521,205.543625 381.100067,207.736786 377.029633,210.584564 
	C366.938293,217.644684 356.933350,224.844604 347.146027,232.318756 
	C335.130920,241.494202 321.861633,246.238205 306.677643,244.823624 
	C296.504822,243.875900 286.345184,242.655594 278.785858,234.584839 
	C274.041901,229.519867 273.316315,222.855972 277.352295,217.227127 
	C280.638214,212.644348 284.505737,208.470276 288.213043,204.199738 
	C295.180298,196.173950 302.218109,188.209351 309.640717,179.984711 
	C309.292053,179.850677 308.943390,179.716644 307.792206,179.557159 
M705.006470,329.452209 
	C711.134766,312.179382 712.598511,294.251343 713.072021,275.550568 
	C702.929077,278.168610 693.434998,280.548706 683.979187,283.072632 
	C651.666077,291.697784 619.764282,301.589905 588.647827,313.930542 
	C583.909241,315.809845 582.123413,318.098785 583.445740,323.645630 
	C588.560486,345.101379 576.312927,356.598206 563.326294,361.385010 
	C558.895508,363.018188 553.919434,363.486267 549.149353,363.776245 
	C545.826660,363.978180 543.986572,364.764832 543.311768,368.231995 
	C540.255798,383.934418 526.321594,395.950378 507.276611,397.672821 
	C501.689362,398.178162 499.329041,400.509644 496.608551,404.708527 
	C488.571381,417.113220 477.032532,423.019379 462.000702,422.361847 
	C458.703400,422.217621 455.196747,424.105865 451.979370,425.502472 
	C446.558075,427.855682 441.529663,431.504395 435.910217,432.930634 
	C423.696655,436.030487 412.172760,432.381378 401.259125,426.940430 
	C397.580811,425.106689 395.020599,425.053558 391.503937,427.776367 
	C371.672607,443.130890 348.514313,435.153900 335.236389,417.277527 
	C333.126434,414.436890 331.602539,413.458282 328.203217,413.773071 
	C314.163727,415.073212 302.796509,409.788757 294.182404,398.777527 
	C291.514771,395.367554 288.621643,393.671875 284.160156,393.442963 
	C266.916626,392.558441 254.685196,384.089905 248.017334,368.069183 
	C246.477356,364.369110 243.732330,363.972839 240.414093,363.835083 
	C222.688538,363.099091 208.902985,348.585236 209.180893,330.925232 
	C209.230484,327.773285 210.060501,324.603607 209.846130,321.489197 
	C209.726059,319.744781 208.635208,317.307556 207.236526,316.539429 
	C200.391693,312.780151 193.437668,309.147705 186.265213,306.069244 
	C152.639587,291.637115 117.290924,282.867310 81.776398,274.681458 
	C74.391632,272.979370 73.151382,273.845001 73.193176,281.443604 
	C73.285385,298.206329 75.868172,314.575134 81.526321,330.397095 
	C94.625778,367.027344 119.216187,394.675720 149.941956,417.414764 
	C179.109131,439.000397 211.449646,454.437988 245.781113,465.795898 
	C277.156342,476.175751 309.242981,483.781555 342.222626,486.192902 
	C362.950348,487.708435 383.842651,486.826752 404.647125,487.471741 
	C442.781799,488.654053 479.979279,482.863892 516.640930,472.975891 
	C562.225525,460.681244 604.831604,442.057159 642.237000,412.723572 
	C670.293884,390.721130 692.249695,364.016205 705.006470,329.452209 
M533.110657,274.395355 
	C542.094177,282.081238 551.635437,289.218323 559.896484,297.615021 
	C567.409790,305.251740 574.399414,305.476349 583.875427,301.579590 
	C622.217834,285.812164 661.622559,273.181458 702.009216,263.691589 
	C704.994263,262.990173 707.897339,261.940125 711.091431,260.975800 
	C706.947815,245.960938 703.258118,231.430649 695.366150,218.490219 
	C683.357910,198.800385 669.982361,180.203003 652.087891,165.261948 
	C649.162048,162.819031 646.636475,162.499512 643.095947,164.043564 
	C620.716858,173.803131 597.647583,180.941483 573.047363,182.447342 
	C547.268555,184.025345 521.751221,183.338211 497.135345,174.470749 
	C482.129395,169.065079 467.412018,162.845779 452.348785,157.614670 
	C432.778564,150.818405 412.455902,148.200516 391.846313,150.142258 
	C374.158905,151.808716 357.911255,158.130371 343.470123,168.652222 
	C323.535004,183.177048 306.957947,201.177994 291.148987,219.905289 
	C286.154663,225.821579 287.102173,227.927353 294.326965,230.472321 
	C307.765320,235.206039 320.632874,233.691437 332.691376,226.491653 
	C338.956909,222.750641 344.639404,218.042725 350.660034,213.879715 
	C361.320251,206.508667 371.700470,198.655426 382.807983,192.026321 
	C400.505676,181.464111 418.292175,182.437897 435.421692,193.965576 
	C438.872955,196.288193 442.443634,198.489731 445.626801,201.145584 
	C474.648560,225.359314 503.596649,249.661316 533.110657,274.395355 
M590.697205,125.774818 
	C575.853455,119.499557 561.318420,112.324471 546.111938,107.106270 
	C483.388428,85.582321 418.851746,78.196533 352.783752,83.784264 
	C300.804565,88.180420 250.500458,99.174446 203.358917,122.158150 
	C187.303360,129.985992 171.811935,138.970901 154.985214,148.005661 
	C157.413925,149.172302 158.122528,149.641159 158.901627,149.868271 
	C182.981812,156.887558 206.936096,164.394302 231.202560,170.699005 
	C246.823151,174.757416 262.859039,177.014252 279.107178,173.066193 
	C292.188354,169.887650 305.434967,167.384399 318.495209,164.128204 
	C324.201050,162.705627 330.402618,161.243500 335.050049,157.933380 
	C364.716431,136.803741 397.864410,133.967941 432.439301,138.648514 
	C451.413513,141.217133 468.822998,149.063858 486.226562,156.540924 
	C506.876251,165.412582 528.373047,169.293365 550.766418,169.960632 
	C577.141846,170.746552 602.432739,166.327332 626.905212,156.690079 
	C629.700806,155.589188 632.531372,154.577011 636.169800,153.215271 
	C621.683228,141.988449 606.485291,134.105240 590.697205,125.774818 
M307.667206,325.947021 
	C297.703033,314.238068 281.527588,313.868073 269.278839,325.225494 
	C266.991730,327.346161 265.229614,330.033051 262.479797,333.360718 
	C261.671387,329.981567 261.345398,328.361145 260.894623,326.776215 
	C257.887482,316.203339 247.033676,309.858276 235.814911,312.089294 
	C228.034698,313.636505 220.188629,324.566559 220.911270,332.851013 
	C222.140549,346.943787 238.944199,355.768524 251.353134,348.835693 
	C253.144073,347.835144 254.925262,346.817169 257.491058,345.366058 
	C259.231995,356.947784 258.779846,368.219208 268.770477,376.013489 
	C279.257538,384.195038 289.554016,380.231415 300.034210,376.143921 
	C300.503998,378.223389 300.928925,379.186768 300.902222,380.137482 
	C300.749115,385.585938 302.495270,390.237030 306.318451,394.153107 
	C314.295258,402.323547 324.031616,403.466461 334.960297,397.448914 
	C340.906952,394.174561 341.007568,394.219299 342.263947,400.697144 
	C345.010376,414.857605 357.022247,424.106781 371.034546,422.850647 
	C384.697357,421.625854 394.038544,411.632050 394.149445,398.120728 
	C394.268799,383.581421 385.894379,373.882660 371.694305,372.699036 
	C365.822083,372.209564 359.875031,372.617920 353.395538,372.617920 
	C353.373779,372.226562 353.119598,370.780945 353.247162,369.369812 
	C353.651398,364.897095 354.154175,360.431824 354.699799,355.973602 
	C355.632904,348.349487 352.931671,342.298035 346.950684,337.596649 
	C339.459869,331.708466 326.725494,331.401855 318.875763,336.944977 
	C314.668488,339.915955 313.805756,339.620728 311.745209,334.722046 
	C310.589722,331.974976 309.298767,329.284882 307.667206,325.947021 
z"/>
<path fill="#FEFFFF" opacity="1.000000" stroke="none" 
	d="
M704.893799,329.829926 
	C692.249695,364.016205 670.293884,390.721130 642.237000,412.723572 
	C604.831604,442.057159 562.225525,460.681244 516.640930,472.975891 
	C479.979279,482.863892 442.781799,488.654053 404.647125,487.471741 
	C383.842651,486.826752 362.950348,487.708435 342.222626,486.192902 
	C309.242981,483.781555 277.156342,476.175751 245.781113,465.795898 
	C211.449646,454.437988 179.109131,439.000397 149.941956,417.414764 
	C119.216187,394.675720 94.625778,367.027344 81.526321,330.397095 
	C75.868172,314.575134 73.285385,298.206329 73.193176,281.443604 
	C73.151382,273.845001 74.391632,272.979370 81.776398,274.681458 
	C117.290924,282.867310 152.639587,291.637115 186.265213,306.069244 
	C193.437668,309.147705 200.391693,312.780151 207.236526,316.539429 
	C208.635208,317.307556 209.726059,319.744781 209.846130,321.489197 
	C210.060501,324.603607 209.230484,327.773285 209.180893,330.925232 
	C208.902985,348.585236 222.688538,363.099091 240.414093,363.835083 
	C243.732330,363.972839 246.477356,364.369110 248.017334,368.069183 
	C254.685196,384.089905 266.916626,392.558441 284.160156,393.442963 
	C288.621643,393.671875 291.514771,395.367554 294.182404,398.777527 
	C302.796509,409.788757 314.163727,415.073212 328.203217,413.773071 
	C331.602539,413.458282 333.126434,414.436890 335.236389,417.277527 
	C348.514313,435.153900 371.672607,443.130890 391.503937,427.776367 
	C395.020599,425.053558 397.580811,425.106689 401.259125,426.940430 
	C412.172760,432.381378 423.696655,436.030487 435.910217,432.930634 
	C441.529663,431.504395 446.558075,427.855682 451.979370,425.502472 
	C455.196747,424.105865 458.703400,422.217621 462.000702,422.361847 
	C477.032532,423.019379 488.571381,417.113220 496.608551,404.708527 
	C499.329041,400.509644 501.689362,398.178162 507.276611,397.672821 
	C526.321594,395.950378 540.255798,383.934418 543.311768,368.231995 
	C543.986572,364.764832 545.826660,363.978180 549.149353,363.776245 
	C553.919434,363.486267 558.895508,363.018188 563.326294,361.385010 
	C576.312927,356.598206 588.560486,345.101379 583.445740,323.645630 
	C582.123413,318.098785 583.909241,315.809845 588.647827,313.930542 
	C619.764282,301.589905 651.666077,291.697784 683.979187,283.072632 
	C693.434998,280.548706 702.929077,278.168610 713.072021,275.550568 
	C712.598511,294.251343 711.134766,312.179382 704.893799,329.829926 
z"/>
<path fill="#FEFFFF" opacity="1.000000" stroke="none" 
	d="
M309.226562,180.219299 
	C302.218109,188.209351 295.180298,196.173950 288.213043,204.199738 
	C284.505737,208.470276 280.638214,212.644348 277.352295,217.227127 
	C273.316315,222.855972 274.041901,229.519867 278.785858,234.584839 
	C286.345184,242.655594 296.504822,243.875900 306.677643,244.823624 
	C321.861633,246.238205 335.130920,241.494202 347.146027,232.318756 
	C356.933350,224.844604 366.938293,217.644684 377.029633,210.584564 
	C381.100067,207.736786 385.634521,205.543625 389.997559,203.124329 
	C403.442139,195.669418 416.960022,196.649597 429.138031,205.088562 
	C443.207092,214.838013 456.751038,225.454453 469.800018,236.545074 
	C501.519745,263.504395 532.790283,290.991638 564.316406,318.179596 
	C570.649719,323.641357 573.188538,330.287109 570.846741,338.222595 
	C568.597351,345.844788 562.213013,348.550018 555.025574,350.220154 
	C547.083923,352.065552 540.750916,349.570709 534.890076,344.374817 
	C521.804138,332.773560 508.634796,321.264252 495.361450,309.878296 
	C492.231201,307.193146 488.645813,304.988647 485.069885,302.906250 
	C484.112244,302.348572 482.417419,303.056824 481.060974,303.183899 
	C481.321228,304.501801 481.141602,306.209473 481.910217,307.076965 
	C489.084625,315.174347 496.349213,323.195251 503.732086,331.103516 
	C511.117737,339.014740 518.845154,346.612335 526.095337,354.643036 
	C532.727051,361.988739 532.143982,369.643616 524.997986,376.632782 
	C514.402588,386.995636 503.953003,387.646118 492.730927,378.096771 
	C483.094971,369.897125 473.848724,361.240234 464.395691,352.824310 
	C462.157776,350.831970 459.941650,348.736725 457.416290,347.171631 
	C455.538483,346.007812 453.177429,345.623749 451.031586,344.892365 
	C451.669159,347.148712 451.697784,349.890381 453.045197,351.581024 
	C460.615234,361.079437 468.508087,370.320435 476.278931,379.659119 
	C478.409912,382.219971 480.567230,384.763184 482.595551,387.404266 
	C487.253296,393.469147 486.677032,398.938293 480.935242,404.059509 
	C472.796906,411.318268 462.073730,411.783295 453.757294,404.769989 
	C445.868927,398.117676 438.383087,390.990204 430.594666,384.216034 
	C427.973022,381.935791 425.085205,379.891418 422.076355,378.161377 
	C420.888336,377.478302 419.038422,377.946381 417.489929,377.890289 
	C417.786835,379.377930 417.613708,381.243164 418.456512,382.292297 
	C424.190918,389.430450 430.126282,396.407806 436.025665,403.412750 
	C438.171173,405.960297 440.326019,408.506470 442.601013,410.936829 
	C445.657928,414.202667 444.690308,416.366425 441.021393,418.191956 
	C433.716827,421.826416 426.172699,421.093689 418.563965,419.652557 
	C418.076141,419.560181 417.613251,419.343109 417.128937,419.224091 
	C403.432312,415.857849 403.432068,415.858673 405.444611,402.314056 
	C408.331543,382.884766 394.868164,364.293610 375.358856,360.769714 
	C367.437347,359.338837 367.188477,359.349518 366.851318,351.474152 
	C366.276825,338.053833 351.700378,320.097717 334.851562,321.954315 
	C332.217346,322.244568 329.522156,321.939911 326.857544,322.005768 
	C322.257111,322.119476 318.635681,320.513367 315.431152,317.021362 
	C303.898407,304.453918 286.439972,301.145630 271.207977,308.658936 
	C267.470764,310.502319 264.911926,310.065582 261.867157,307.330658 
	C251.605927,298.113434 234.420700,297.262878 222.977783,305.249054 
	C220.801056,306.768219 219.104141,307.730988 216.317352,306.200073 
	C177.880356,285.085205 136.031479,273.595367 93.870415,262.999084 
	C89.197090,261.824554 84.612183,260.279449 79.914322,259.227478 
	C76.437721,258.449005 75.744591,256.767761 76.681587,253.494415 
	C82.323753,233.784012 90.663483,215.120361 103.149162,199.049652 
	C113.398064,185.857956 126.126785,174.596222 137.715027,162.439682 
	C141.147186,158.839218 144.882095,158.633148 149.479950,160.166824 
	C168.240097,166.424576 187.089005,172.416885 205.915527,178.474854 
	C238.033630,188.809692 270.316376,191.964783 302.932526,180.665848 
	C304.493164,180.125198 306.169647,179.919067 308.349976,179.730530 
	C308.907715,179.903885 309.226562,180.219299 309.226562,180.219299 
z"/>
<path fill="#FEFFFF" opacity="1.000000" stroke="none" 
	d="
M532.838501,274.166443 
	C503.596649,249.661316 474.648560,225.359314 445.626801,201.145584 
	C442.443634,198.489731 438.872955,196.288193 435.421692,193.965576 
	C418.292175,182.437897 400.505676,181.464111 382.807983,192.026321 
	C371.700470,198.655426 361.320251,206.508667 350.660034,213.879715 
	C344.639404,218.042725 338.956909,222.750641 332.691376,226.491653 
	C320.632874,233.691437 307.765320,235.206039 294.326965,230.472321 
	C287.102173,227.927353 286.154663,225.821579 291.148987,219.905289 
	C306.957947,201.177994 323.535004,183.177048 343.470123,168.652222 
	C357.911255,158.130371 374.158905,151.808716 391.846313,150.142258 
	C412.455902,148.200516 432.778564,150.818405 452.348785,157.614670 
	C467.412018,162.845779 482.129395,169.065079 497.135345,174.470749 
	C521.751221,183.338211 547.268555,184.025345 573.047363,182.447342 
	C597.647583,180.941483 620.716858,173.803131 643.095947,164.043564 
	C646.636475,162.499512 649.162048,162.819031 652.087891,165.261948 
	C669.982361,180.203003 683.357910,198.800385 695.366150,218.490219 
	C703.258118,231.430649 706.947815,245.960938 711.091431,260.975800 
	C707.897339,261.940125 704.994263,262.990173 702.009216,263.691589 
	C661.622559,273.181458 622.217834,285.812164 583.875427,301.579590 
	C574.399414,305.476349 567.409790,305.251740 559.896484,297.615021 
	C551.635437,289.218323 542.094177,282.081238 532.838501,274.166443 
z"/>
<path fill="#FEFFFF" opacity="1.000000" stroke="none" 
	d="
M591.041504,125.918198 
	C606.485291,134.105240 621.683228,141.988449 636.169800,153.215271 
	C632.531372,154.577011 629.700806,155.589188 626.905212,156.690079 
	C602.432739,166.327332 577.141846,170.746552 550.766418,169.960632 
	C528.373047,169.293365 506.876251,165.412582 486.226562,156.540924 
	C468.822998,149.063858 451.413513,141.217133 432.439301,138.648514 
	C397.864410,133.967941 364.716431,136.803741 335.050049,157.933380 
	C330.402618,161.243500 324.201050,162.705627 318.495209,164.128204 
	C305.434967,167.384399 292.188354,169.887650 279.107178,173.066193 
	C262.859039,177.014252 246.823151,174.757416 231.202560,170.699005 
	C206.936096,164.394302 182.981812,156.887558 158.901627,149.868271 
	C158.122528,149.641159 157.413925,149.172302 154.985214,148.005661 
	C171.811935,138.970901 187.303360,129.985992 203.358917,122.158150 
	C250.500458,99.174446 300.804565,88.180420 352.783752,83.784264 
	C418.851746,78.196533 483.388428,85.582321 546.111938,107.106270 
	C561.318420,112.324471 575.853455,119.499557 591.041504,125.918198 
z"/>
<path fill="#FDFEFF" opacity="1.000000" stroke="none" 
	d="
M307.868042,326.258057 
	C309.298767,329.284882 310.589722,331.974976 311.745209,334.722046 
	C313.805756,339.620728 314.668488,339.915955 318.875763,336.944977 
	C326.725494,331.401855 339.459869,331.708466 346.950684,337.596649 
	C352.931671,342.298035 355.632904,348.349487 354.699799,355.973602 
	C354.154175,360.431824 353.651398,364.897095 353.247162,369.369812 
	C353.119598,370.780945 353.373779,372.226562 353.395538,372.617920 
	C359.875031,372.617920 365.822083,372.209564 371.694305,372.699036 
	C385.894379,373.882660 394.268799,383.581421 394.149445,398.120728 
	C394.038544,411.632050 384.697357,421.625854 371.034546,422.850647 
	C357.022247,424.106781 345.010376,414.857605 342.263947,400.697144 
	C341.007568,394.219299 340.906952,394.174561 334.960297,397.448914 
	C324.031616,403.466461 314.295258,402.323547 306.318451,394.153107 
	C302.495270,390.237030 300.749115,385.585938 300.902222,380.137482 
	C300.928925,379.186768 300.503998,378.223389 300.034210,376.143921 
	C289.554016,380.231415 279.257538,384.195038 268.770477,376.013489 
	C258.779846,368.219208 259.231995,356.947784 257.491058,345.366058 
	C254.925262,346.817169 253.144073,347.835144 251.353134,348.835693 
	C238.944199,355.768524 222.140549,346.943787 220.911270,332.851013 
	C220.188629,324.566559 228.034698,313.636505 235.814911,312.089294 
	C247.033676,309.858276 257.887482,316.203339 260.894623,326.776215 
	C261.345398,328.361145 261.671387,329.981567 262.479797,333.360718 
	C265.229614,330.033051 266.991730,327.346161 269.278839,325.225494 
	C281.527588,313.868073 297.703033,314.238068 307.868042,326.258057 
z"/>
<path fill="#FEFFFF" opacity="1.000000" stroke="none" 
	d="
M308.751221,179.743256 
	C308.943390,179.716644 309.292053,179.850677 309.433655,180.102005 
	C309.226562,180.219299 308.907715,179.903885 308.751221,179.743256 
z"/>
</svg>